solid OpenSCAD_Model
  facet normal 0.994522 0.104528 0
    outer loop
      vertex 30 0 6
      vertex 29.563 4.15823 0
      vertex 29.563 4.15823 6
    endloop
  endfacet
  facet normal 0.994522 0.104528 0
    outer loop
      vertex 29.563 4.15823 0
      vertex 30 0 6
      vertex 30 0 0
    endloop
  endfacet
  facet normal 0.951056 0.309017 0
    outer loop
      vertex 29.563 4.15823 6
      vertex 28.2709 8.13473 0
      vertex 28.2709 8.13473 6
    endloop
  endfacet
  facet normal 0.951056 0.309017 0
    outer loop
      vertex 28.2709 8.13473 0
      vertex 29.563 4.15823 6
      vertex 29.563 4.15823 0
    endloop
  endfacet
  facet normal 0.866025 0.5 0
    outer loop
      vertex 28.2709 8.13473 6
      vertex 26.1803 11.7557 0
      vertex 26.1803 11.7557 6
    endloop
  endfacet
  facet normal 0.866025 0.5 0
    outer loop
      vertex 26.1803 11.7557 0
      vertex 28.2709 8.13473 6
      vertex 28.2709 8.13473 0
    endloop
  endfacet
  facet normal 0.743145 0.669131 0
    outer loop
      vertex 26.1803 11.7557 6
      vertex 23.3826 14.8629 0
      vertex 23.3826 14.8629 6
    endloop
  endfacet
  facet normal 0.743145 0.669131 0
    outer loop
      vertex 23.3826 14.8629 0
      vertex 26.1803 11.7557 6
      vertex 26.1803 11.7557 0
    endloop
  endfacet
  facet normal 0.587785 0.809017 -0
    outer loop
      vertex 23.3826 14.8629 0
      vertex 20 17.3205 6
      vertex 23.3826 14.8629 6
    endloop
  endfacet
  facet normal 0.587785 0.809017 0
    outer loop
      vertex 20 17.3205 6
      vertex 23.3826 14.8629 0
      vertex 20 17.3205 0
    endloop
  endfacet
  facet normal 0.406736 0.913546 -0
    outer loop
      vertex 20 17.3205 0
      vertex 16.1803 19.0211 6
      vertex 20 17.3205 6
    endloop
  endfacet
  facet normal 0.406736 0.913546 0
    outer loop
      vertex 16.1803 19.0211 6
      vertex 20 17.3205 0
      vertex 16.1803 19.0211 0
    endloop
  endfacet
  facet normal 0.207912 0.978148 -0
    outer loop
      vertex 16.1803 19.0211 0
      vertex 12.0906 19.8904 6
      vertex 16.1803 19.0211 6
    endloop
  endfacet
  facet normal 0.207912 0.978148 0
    outer loop
      vertex 12.0906 19.8904 6
      vertex 16.1803 19.0211 0
      vertex 12.0906 19.8904 0
    endloop
  endfacet
  facet normal 0 1 -0
    outer loop
      vertex 12.0906 19.8904 0
      vertex 7.90943 19.8904 6
      vertex 12.0906 19.8904 6
    endloop
  endfacet
  facet normal 0 1 0
    outer loop
      vertex 7.90943 19.8904 6
      vertex 12.0906 19.8904 0
      vertex 7.90943 19.8904 0
    endloop
  endfacet
  facet normal -0.207912 0.978148 0
    outer loop
      vertex 7.90943 19.8904 0
      vertex 3.81966 19.0211 6
      vertex 7.90943 19.8904 6
    endloop
  endfacet
  facet normal -0.207912 0.978148 0
    outer loop
      vertex 3.81966 19.0211 6
      vertex 7.90943 19.8904 0
      vertex 3.81966 19.0211 0
    endloop
  endfacet
  facet normal -0.406736 0.913546 0
    outer loop
      vertex 3.81966 19.0211 0
      vertex 3.55271e-15 17.3205 6
      vertex 3.81966 19.0211 6
    endloop
  endfacet
  facet normal -0.406736 0.913546 0
    outer loop
      vertex 3.55271e-15 17.3205 6
      vertex 3.81966 19.0211 0
      vertex 3.55271e-15 17.3205 0
    endloop
  endfacet
  facet normal -0.587785 0.809017 0
    outer loop
      vertex 3.55271e-15 17.3205 0
      vertex -3.38261 14.8629 6
      vertex 3.55271e-15 17.3205 6
    endloop
  endfacet
  facet normal -0.587785 0.809017 0
    outer loop
      vertex -3.38261 14.8629 6
      vertex 3.55271e-15 17.3205 0
      vertex -3.38261 14.8629 0
    endloop
  endfacet
  facet normal -0.743145 0.669131 0
    outer loop
      vertex -6.18034 11.7557 0
      vertex -3.38261 14.8629 6
      vertex -3.38261 14.8629 0
    endloop
  endfacet
  facet normal -0.743145 0.669131 0
    outer loop
      vertex -3.38261 14.8629 6
      vertex -6.18034 11.7557 0
      vertex -6.18034 11.7557 6
    endloop
  endfacet
  facet normal -0.866025 0.5 0
    outer loop
      vertex -8.27091 8.13473 0
      vertex -6.18034 11.7557 6
      vertex -6.18034 11.7557 0
    endloop
  endfacet
  facet normal -0.866025 0.5 0
    outer loop
      vertex -6.18034 11.7557 6
      vertex -8.27091 8.13473 0
      vertex -8.27091 8.13473 6
    endloop
  endfacet
  facet normal -0.951057 0.309017 0
    outer loop
      vertex -9.56295 4.15823 0
      vertex -8.27091 8.13473 6
      vertex -8.27091 8.13473 0
    endloop
  endfacet
  facet normal -0.951057 0.309017 0
    outer loop
      vertex -8.27091 8.13473 6
      vertex -9.56295 4.15823 0
      vertex -9.56295 4.15823 6
    endloop
  endfacet
  facet normal -0.994522 0.104528 0
    outer loop
      vertex -10 1.13311e-14 0
      vertex -9.56295 4.15823 6
      vertex -9.56295 4.15823 0
    endloop
  endfacet
  facet normal -0.994522 0.104528 0
    outer loop
      vertex -9.56295 4.15823 6
      vertex -10 1.13311e-14 0
      vertex -10 1.13311e-14 6
    endloop
  endfacet
  facet normal -0.994522 -0.104528 0
    outer loop
      vertex -9.56295 -4.15823 0
      vertex -10 1.13311e-14 6
      vertex -10 1.13311e-14 0
    endloop
  endfacet
  facet normal -0.994522 -0.104528 0
    outer loop
      vertex -10 1.13311e-14 6
      vertex -9.56295 -4.15823 0
      vertex -9.56295 -4.15823 6
    endloop
  endfacet
  facet normal -0.951057 -0.309017 0
    outer loop
      vertex -8.27091 -8.13473 0
      vertex -9.56295 -4.15823 6
      vertex -9.56295 -4.15823 0
    endloop
  endfacet
  facet normal -0.951057 -0.309017 0
    outer loop
      vertex -9.56295 -4.15823 6
      vertex -8.27091 -8.13473 0
      vertex -8.27091 -8.13473 6
    endloop
  endfacet
  facet normal -0.866025 -0.5 0
    outer loop
      vertex -6.18034 -11.7557 0
      vertex -8.27091 -8.13473 6
      vertex -8.27091 -8.13473 0
    endloop
  endfacet
  facet normal -0.866025 -0.5 0
    outer loop
      vertex -8.27091 -8.13473 6
      vertex -6.18034 -11.7557 0
      vertex -6.18034 -11.7557 6
    endloop
  endfacet
  facet normal -0.743145 -0.669131 0
    outer loop
      vertex -3.38261 -14.8629 0
      vertex -6.18034 -11.7557 6
      vertex -6.18034 -11.7557 0
    endloop
  endfacet
  facet normal -0.743145 -0.669131 0
    outer loop
      vertex -6.18034 -11.7557 6
      vertex -3.38261 -14.8629 0
      vertex -3.38261 -14.8629 6
    endloop
  endfacet
  facet normal -0.587785 -0.809017 0
    outer loop
      vertex -3.38261 -14.8629 0
      vertex -8.88178e-15 -17.3205 6
      vertex -3.38261 -14.8629 6
    endloop
  endfacet
  facet normal -0.587785 -0.809017 -0
    outer loop
      vertex -8.88178e-15 -17.3205 6
      vertex -3.38261 -14.8629 0
      vertex -8.88178e-15 -17.3205 0
    endloop
  endfacet
  facet normal -0.406736 -0.913546 0
    outer loop
      vertex -8.88178e-15 -17.3205 0
      vertex 3.81966 -19.0211 6
      vertex -8.88178e-15 -17.3205 6
    endloop
  endfacet
  facet normal -0.406736 -0.913546 -0
    outer loop
      vertex 3.81966 -19.0211 6
      vertex -8.88178e-15 -17.3205 0
      vertex 3.81966 -19.0211 0
    endloop
  endfacet
  facet normal -0.207912 -0.978148 0
    outer loop
      vertex 3.81966 -19.0211 0
      vertex 7.90943 -19.8904 6
      vertex 3.81966 -19.0211 6
    endloop
  endfacet
  facet normal -0.207912 -0.978148 -0
    outer loop
      vertex 7.90943 -19.8904 6
      vertex 3.81966 -19.0211 0
      vertex 7.90943 -19.8904 0
    endloop
  endfacet
  facet normal 0 -1 0
    outer loop
      vertex 7.90943 -19.8904 0
      vertex 12.0906 -19.8904 6
      vertex 7.90943 -19.8904 6
    endloop
  endfacet
  facet normal 0 -1 -0
    outer loop
      vertex 12.0906 -19.8904 6
      vertex 7.90943 -19.8904 0
      vertex 12.0906 -19.8904 0
    endloop
  endfacet
  facet normal 0.207912 -0.978148 0
    outer loop
      vertex 12.0906 -19.8904 0
      vertex 16.1803 -19.0211 6
      vertex 12.0906 -19.8904 6
    endloop
  endfacet
  facet normal 0.207912 -0.978148 0
    outer loop
      vertex 16.1803 -19.0211 6
      vertex 12.0906 -19.8904 0
      vertex 16.1803 -19.0211 0
    endloop
  endfacet
  facet normal 0.406736 -0.913546 0
    outer loop
      vertex 16.1803 -19.0211 0
      vertex 20 -17.3205 6
      vertex 16.1803 -19.0211 6
    endloop
  endfacet
  facet normal 0.406736 -0.913546 0
    outer loop
      vertex 20 -17.3205 6
      vertex 16.1803 -19.0211 0
      vertex 20 -17.3205 0
    endloop
  endfacet
  facet normal 0.587785 -0.809017 0
    outer loop
      vertex 20 -17.3205 0
      vertex 23.3826 -14.8629 6
      vertex 20 -17.3205 6
    endloop
  endfacet
  facet normal 0.587785 -0.809017 0
    outer loop
      vertex 23.3826 -14.8629 6
      vertex 20 -17.3205 0
      vertex 23.3826 -14.8629 0
    endloop
  endfacet
  facet normal 0.743145 -0.669131 0
    outer loop
      vertex 23.3826 -14.8629 6
      vertex 26.1803 -11.7557 0
      vertex 26.1803 -11.7557 6
    endloop
  endfacet
  facet normal 0.743145 -0.669131 0
    outer loop
      vertex 26.1803 -11.7557 0
      vertex 23.3826 -14.8629 6
      vertex 23.3826 -14.8629 0
    endloop
  endfacet
  facet normal 0.866025 -0.5 0
    outer loop
      vertex 26.1803 -11.7557 6
      vertex 28.2709 -8.13473 0
      vertex 28.2709 -8.13473 6
    endloop
  endfacet
  facet normal 0.866025 -0.5 0
    outer loop
      vertex 28.2709 -8.13473 0
      vertex 26.1803 -11.7557 6
      vertex 26.1803 -11.7557 0
    endloop
  endfacet
  facet normal 0.951056 -0.309017 0
    outer loop
      vertex 28.2709 -8.13473 6
      vertex 29.563 -4.15823 0
      vertex 29.563 -4.15823 6
    endloop
  endfacet
  facet normal 0.951056 -0.309017 0
    outer loop
      vertex 29.563 -4.15823 0
      vertex 28.2709 -8.13473 6
      vertex 28.2709 -8.13473 0
    endloop
  endfacet
  facet normal 0.994522 -0.104528 0
    outer loop
      vertex 29.563 -4.15823 6
      vertex 30 0 0
      vertex 30 0 6
    endloop
  endfacet
  facet normal 0.994522 -0.104528 0
    outer loop
      vertex 30 0 0
      vertex 29.563 -4.15823 6
      vertex 29.563 -4.15823 0
    endloop
  endfacet
  facet normal 0 0 -1
    outer loop
      vertex 29.563 -4.15823 0
      vertex 29.563 4.15823 0
      vertex 30 0 0
    endloop
  endfacet
  facet normal 0 0 -1
    outer loop
      vertex 28.2709 -8.13473 0
      vertex 29.563 4.15823 0
      vertex 29.563 -4.15823 0
    endloop
  endfacet
  facet normal 0 0 -1
    outer loop
      vertex 28.2709 -8.13473 0
      vertex 28.2709 8.13473 0
      vertex 29.563 4.15823 0
    endloop
  endfacet
  facet normal 0 0 -1
    outer loop
      vertex 26.1803 -11.7557 0
      vertex 28.2709 8.13473 0
      vertex 28.2709 -8.13473 0
    endloop
  endfacet
  facet normal 0 0 -1
    outer loop
      vertex 26.1803 -11.7557 0
      vertex 26.1803 11.7557 0
      vertex 28.2709 8.13473 0
    endloop
  endfacet
  facet normal 0 0 -1
    outer loop
      vertex 23.3826 -14.8629 0
      vertex 26.1803 11.7557 0
      vertex 26.1803 -11.7557 0
    endloop
  endfacet
  facet normal 0 0 -1
    outer loop
      vertex 23.3826 -14.8629 0
      vertex 23.3826 14.8629 0
      vertex 26.1803 11.7557 0
    endloop
  endfacet
  facet normal 0 0 -1
    outer loop
      vertex 20 -17.3205 0
      vertex 23.3826 14.8629 0
      vertex 23.3826 -14.8629 0
    endloop
  endfacet
  facet normal 0 0 -1
    outer loop
      vertex 20 -17.3205 0
      vertex 20 17.3205 0
      vertex 23.3826 14.8629 0
    endloop
  endfacet
  facet normal 0 0 -1
    outer loop
      vertex 16.1803 -19.0211 0
      vertex 20 17.3205 0
      vertex 20 -17.3205 0
    endloop
  endfacet
  facet normal 0 0 -1
    outer loop
      vertex 16.1803 -19.0211 0
      vertex 16.1803 19.0211 0
      vertex 20 17.3205 0
    endloop
  endfacet
  facet normal 0 0 -1
    outer loop
      vertex 12.0906 -19.8904 0
      vertex 16.1803 19.0211 0
      vertex 16.1803 -19.0211 0
    endloop
  endfacet
  facet normal 0 0 -1
    outer loop
      vertex 12.0906 -19.8904 0
      vertex 12.0906 19.8904 0
      vertex 16.1803 19.0211 0
    endloop
  endfacet
  facet normal 0 0 -1
    outer loop
      vertex 7.90943 -19.8904 0
      vertex 12.0906 19.8904 0
      vertex 12.0906 -19.8904 0
    endloop
  endfacet
  facet normal 0 0 -1
    outer loop
      vertex 7.90943 -19.8904 0
      vertex 7.90943 19.8904 0
      vertex 12.0906 19.8904 0
    endloop
  endfacet
  facet normal 0 0 -1
    outer loop
      vertex 3.81966 -19.0211 0
      vertex 7.90943 19.8904 0
      vertex 7.90943 -19.8904 0
    endloop
  endfacet
  facet normal 0 0 -1
    outer loop
      vertex 3.81966 -19.0211 0
      vertex 3.81966 19.0211 0
      vertex 7.90943 19.8904 0
    endloop
  endfacet
  facet normal 0 0 -1
    outer loop
      vertex 3.81966 -19.0211 0
      vertex 3.55271e-15 17.3205 0
      vertex 3.81966 19.0211 0
    endloop
  endfacet
  facet normal 0 0 -1
    outer loop
      vertex -8.88178e-15 -17.3205 0
      vertex 3.55271e-15 17.3205 0
      vertex 3.81966 -19.0211 0
    endloop
  endfacet
  facet normal 0 0 -1
    outer loop
      vertex -3.38261 -14.8629 0
      vertex 3.55271e-15 17.3205 0
      vertex -8.88178e-15 -17.3205 0
    endloop
  endfacet
  facet normal 0 0 -1
    outer loop
      vertex -3.38261 -14.8629 0
      vertex -3.38261 14.8629 0
      vertex 3.55271e-15 17.3205 0
    endloop
  endfacet
  facet normal 0 0 -1
    outer loop
      vertex -6.18034 -11.7557 0
      vertex -3.38261 14.8629 0
      vertex -3.38261 -14.8629 0
    endloop
  endfacet
  facet normal 0 0 -1
    outer loop
      vertex -6.18034 -11.7557 0
      vertex -6.18034 11.7557 0
      vertex -3.38261 14.8629 0
    endloop
  endfacet
  facet normal 0 0 -1
    outer loop
      vertex -8.27091 -8.13473 0
      vertex -6.18034 11.7557 0
      vertex -6.18034 -11.7557 0
    endloop
  endfacet
  facet normal 0 0 -1
    outer loop
      vertex -8.27091 -8.13473 0
      vertex -8.27091 8.13473 0
      vertex -6.18034 11.7557 0
    endloop
  endfacet
  facet normal 0 0 -1
    outer loop
      vertex -9.56295 -4.15823 0
      vertex -8.27091 8.13473 0
      vertex -8.27091 -8.13473 0
    endloop
  endfacet
  facet normal 0 0 -1
    outer loop
      vertex -9.56295 -4.15823 0
      vertex -9.56295 4.15823 0
      vertex -8.27091 8.13473 0
    endloop
  endfacet
  facet normal 0 -0 -1
    outer loop
      vertex -9.56295 4.15823 0
      vertex -9.56295 -4.15823 0
      vertex -10 1.13311e-14 0
    endloop
  endfacet
  facet normal 0 0 1
    outer loop
      vertex 29.563 4.15823 6
      vertex 29.563 -4.15823 6
      vertex 30 0 6
    endloop
  endfacet
  facet normal 0 0 1
    outer loop
      vertex 28.2709 8.13473 6
      vertex 29.563 -4.15823 6
      vertex 29.563 4.15823 6
    endloop
  endfacet
  facet normal 0 0 1
    outer loop
      vertex 28.2709 8.13473 6
      vertex 28.2709 -8.13473 6
      vertex 29.563 -4.15823 6
    endloop
  endfacet
  facet normal 0 0 1
    outer loop
      vertex 26.1803 11.7557 6
      vertex 28.2709 -8.13473 6
      vertex 28.2709 8.13473 6
    endloop
  endfacet
  facet normal 0 0 1
    outer loop
      vertex 26.1803 11.7557 6
      vertex 26.1803 -11.7557 6
      vertex 28.2709 -8.13473 6
    endloop
  endfacet
  facet normal 0 0 1
    outer loop
      vertex 23.3826 14.8629 6
      vertex 26.1803 -11.7557 6
      vertex 26.1803 11.7557 6
    endloop
  endfacet
  facet normal 0 0 1
    outer loop
      vertex 23.3826 14.8629 6
      vertex 23.3826 -14.8629 6
      vertex 26.1803 -11.7557 6
    endloop
  endfacet
  facet normal 0 0 1
    outer loop
      vertex 20 17.3205 6
      vertex 23.3826 -14.8629 6
      vertex 23.3826 14.8629 6
    endloop
  endfacet
  facet normal 0 0 1
    outer loop
      vertex 20 17.3205 6
      vertex 20 -17.3205 6
      vertex 23.3826 -14.8629 6
    endloop
  endfacet
  facet normal 0 0 1
    outer loop
      vertex 16.1803 19.0211 6
      vertex 20 -17.3205 6
      vertex 20 17.3205 6
    endloop
  endfacet
  facet normal 0 0 1
    outer loop
      vertex 16.1803 19.0211 6
      vertex 16.1803 -19.0211 6
      vertex 20 -17.3205 6
    endloop
  endfacet
  facet normal 0 0 1
    outer loop
      vertex 12.0906 19.8904 6
      vertex 16.1803 -19.0211 6
      vertex 16.1803 19.0211 6
    endloop
  endfacet
  facet normal 0 0 1
    outer loop
      vertex 12.0906 19.8904 6
      vertex 12.0906 -19.8904 6
      vertex 16.1803 -19.0211 6
    endloop
  endfacet
  facet normal -0 0 1
    outer loop
      vertex 7.90943 19.8904 6
      vertex 12.0906 -19.8904 6
      vertex 12.0906 19.8904 6
    endloop
  endfacet
  facet normal 0 0 1
    outer loop
      vertex 7.90943 19.8904 6
      vertex 7.90943 -19.8904 6
      vertex 12.0906 -19.8904 6
    endloop
  endfacet
  facet normal -0 0 1
    outer loop
      vertex 3.81966 19.0211 6
      vertex 7.90943 -19.8904 6
      vertex 7.90943 19.8904 6
    endloop
  endfacet
  facet normal 0 0 1
    outer loop
      vertex 3.81966 19.0211 6
      vertex 3.81966 -19.0211 6
      vertex 7.90943 -19.8904 6
    endloop
  endfacet
  facet normal -0 0 1
    outer loop
      vertex 3.55271e-15 17.3205 6
      vertex 3.81966 -19.0211 6
      vertex 3.81966 19.0211 6
    endloop
  endfacet
  facet normal 0 0 1
    outer loop
      vertex 3.55271e-15 17.3205 6
      vertex -8.88178e-15 -17.3205 6
      vertex 3.81966 -19.0211 6
    endloop
  endfacet
  facet normal -0 0 1
    outer loop
      vertex -3.38261 14.8629 6
      vertex -8.88178e-15 -17.3205 6
      vertex 3.55271e-15 17.3205 6
    endloop
  endfacet
  facet normal 0 0 1
    outer loop
      vertex -3.38261 14.8629 6
      vertex -3.38261 -14.8629 6
      vertex -8.88178e-15 -17.3205 6
    endloop
  endfacet
  facet normal -0 0 1
    outer loop
      vertex -6.18034 11.7557 6
      vertex -3.38261 -14.8629 6
      vertex -3.38261 14.8629 6
    endloop
  endfacet
  facet normal 0 0 1
    outer loop
      vertex -6.18034 11.7557 6
      vertex -6.18034 -11.7557 6
      vertex -3.38261 -14.8629 6
    endloop
  endfacet
  facet normal -0 0 1
    outer loop
      vertex -8.27091 8.13473 6
      vertex -6.18034 -11.7557 6
      vertex -6.18034 11.7557 6
    endloop
  endfacet
  facet normal 0 0 1
    outer loop
      vertex -8.27091 8.13473 6
      vertex -8.27091 -8.13473 6
      vertex -6.18034 -11.7557 6
    endloop
  endfacet
  facet normal -0 0 1
    outer loop
      vertex -9.56295 4.15823 6
      vertex -8.27091 -8.13473 6
      vertex -8.27091 8.13473 6
    endloop
  endfacet
  facet normal 0 0 1
    outer loop
      vertex -9.56295 4.15823 6
      vertex -9.56295 -4.15823 6
      vertex -8.27091 -8.13473 6
    endloop
  endfacet
  facet normal 0 -0 1
    outer loop
      vertex -9.56295 -4.15823 6
      vertex -9.56295 4.15823 6
      vertex -10 1.13311e-14 6
    endloop
  endfacet
endsolid OpenSCAD_Model
